<svg xmlns="http://www.w3.org/2000/svg" xmlns:xlink="http://www.w3.org/1999/xlink"><symbol id="close-envelope" viewBox="0 0 14 14">
<g>
	<g>
		<path style="fill:#030104;" d="M7,9L5.268,7.484l-4.952,4.245C0.496,11.896,0.739,12,1.007,12h11.986
			c0.267,0,0.509-0.104,0.688-0.271L8.732,7.484L7,9z"/>
		<path style="fill:#030104;" d="M13.684,2.271C13.504,2.103,13.262,2,12.993,2H1.007C0.74,2,0.498,2.104,0.318,2.273L7,8
			L13.684,2.271z"/>
		<polygon style="fill:#030104;" points="0,2.878 0,11.186 4.833,7.079 		"/>
		<polygon style="fill:#030104;" points="9.167,7.079 14,11.186 14,2.875 		"/>
	</g>
</g>
<g>
</g>
<g>
</g>
<g>
</g>
<g>
</g>
<g>
</g>
<g>
</g>
<g>
</g>
<g>
</g>
<g>
</g>
<g>
</g>
<g>
</g>
<g>
</g>
<g>
</g>
<g>
</g>
<g>
</g>
</symbol><symbol id="phone-receiver" viewBox="0 0 1792 1792"><path d="M1600 1240q0 27-10 70.5t-21 68.5q-21 50-122 106-94 51-186 51-27 0-52.5-3.5t-57.5-12.5-47.5-14.5-55.5-20.5-49-18q-98-35-175-83-128-79-264.5-215.5t-215.5-264.5q-48-77-83-175-3-9-18-49t-20.5-55.5-14.5-47.5-12.5-57.5-3.5-52.5q0-92 51-186 56-101 106-122 25-11 68.5-21t70.5-10q14 0 21 3 18 6 53 76 11 19 30 54t35 63.5 31 53.5q3 4 17.5 25t21.5 35.5 7 28.5q0 20-28.5 50t-62 55-62 53-28.5 46q0 9 5 22.5t8.5 20.5 14 24 11.5 19q76 137 174 235t235 174q2 1 19 11.5t24 14 20.5 8.5 22.5 5q18 0 46-28.5t53-62 55-62 50-28.5q14 0 28.5 7t35.5 21.5 25 17.5q25 15 53.5 31t63.5 35 54 30q70 35 76 53 3 7 3 21z"/></symbol><symbol id="v">

		<path d="M20.687,38.332c-2.072,2.072-5.434,2.072-7.505,0L1.554,26.704c-2.072-2.071-2.072-5.433,0-7.504    c2.071-2.072,5.433-2.072,7.505,0l6.928,6.927c0.523,0.522,1.372,0.522,1.896,0L36.642,7.368c2.071-2.072,5.433-2.072,7.505,0    c0.995,0.995,1.554,2.345,1.554,3.752c0,1.407-0.559,2.757-1.554,3.752L20.687,38.332z"/>

</symbol><symbol id="x">
	
	<path d="M131.804,106.491l75.936-75.936c6.99-6.99,6.99-18.323,0-25.312
		c-6.99-6.99-18.322-6.99-25.312,0l-75.937,75.937L30.554,5.242c-6.99-6.99-18.322-6.99-25.312,0c-6.989,6.99-6.989,18.323,0,25.312
		l75.937,75.936L5.242,182.427c-6.989,6.99-6.989,18.323,0,25.312c6.99,6.99,18.322,6.99,25.312,0l75.937-75.937l75.937,75.937
		c6.989,6.99,18.322,6.99,25.312,0c6.99-6.99,6.99-18.322,0-25.312L131.804,106.491z"/>
</symbol></svg>